<svg width="160" height="160" viewBox="0 0 160 160" fill="none" xmlns="http://www.w3.org/2000/svg">
<path d="M72.5004 112.5C72.5004 114.489 73.2905 116.397 74.6971 117.803C76.1036 119.21 78.0112 120 80.0004 120C81.9895 120 83.8971 119.21 85.3036 117.803C86.7102 116.397 87.5004 114.489 87.5004 112.5C87.5004 110.511 86.7102 108.603 85.3036 107.197C83.8971 105.79 81.9895 105 80.0004 105C78.0112 105 76.1036 105.79 74.6971 107.197C73.2905 108.603 72.5004 110.511 72.5004 112.5ZM75.0004 65V93.75C75.0004 94.4375 75.5629 95 76.2504 95H83.7504C84.4379 95 85.0004 94.4375 85.0004 93.75V65C85.0004 64.3125 84.4379 63.75 83.7504 63.75H76.2504C75.5629 63.75 75.0004 64.3125 75.0004 65ZM149.328 133.75L84.3285 21.25C83.3597 19.5781 81.6879 18.75 80.0004 18.75C78.3129 18.75 76.6254 19.5781 75.6722 21.25L10.6722 133.75C8.75036 137.094 11.1566 141.25 15.0004 141.25H145C148.844 141.25 151.25 137.094 149.328 133.75ZM26.9066 129.391L80.0004 37.4844L133.094 129.391H26.9066Z" fill="black" fill-opacity="0.45"/>
</svg>
