<svg width="32" height="32" viewBox="0 0 32 32" fill="none" xmlns="http://www.w3.org/2000/svg">
<path d="M16 0.25C7.30234 0.25 0.25 7.30234 0.25 16C0.25 24.6977 7.30234 31.75 16 31.75C24.6977 31.75 31.75 24.6977 31.75 16C31.75 7.30234 24.6977 0.25 16 0.25ZM16 29.0781C8.77891 29.0781 2.92188 23.2211 2.92188 16C2.92188 8.77891 8.77891 2.92188 16 2.92188C23.2211 2.92188 29.0781 8.77891 29.0781 16C29.0781 23.2211 23.2211 29.0781 16 29.0781ZM17.677 15.1844L16.784 14.977V10.2555C18.1199 10.4383 18.9461 11.275 19.0867 12.3016C19.1043 12.4422 19.2238 12.5441 19.3645 12.5441H20.943C21.1082 12.5441 21.2383 12.4 21.2242 12.2348C21.0098 10.0445 19.2063 8.63828 16.798 8.3957V7.24609C16.798 7.09141 16.6715 6.96484 16.5168 6.96484H15.5289C15.3742 6.96484 15.2477 7.09141 15.2477 7.24609V8.40625C12.7586 8.64883 10.8109 10.0234 10.8109 12.5898C10.8109 14.9664 12.5617 16.1125 14.4004 16.552L15.2688 16.7734V21.7902C13.7148 21.5828 12.843 20.7531 12.6637 19.6352C12.6426 19.5016 12.523 19.4031 12.3859 19.4031H10.7617C10.5965 19.4031 10.4664 19.5438 10.4805 19.709C10.6387 21.6426 12.1047 23.4215 15.2336 23.65V24.7539C15.2336 24.9086 15.3602 25.0352 15.5148 25.0352H16.5133C16.668 25.0352 16.7945 24.9086 16.7945 24.7504L16.7875 23.6359C19.5402 23.3934 21.509 21.9203 21.509 19.2766C21.5055 16.8367 19.9551 15.7469 17.677 15.1844ZM15.2652 14.6148C15.0684 14.5586 14.9031 14.5059 14.7379 14.4391C13.5496 14.0102 12.9977 13.3176 12.9977 12.4246C12.9977 11.1484 13.9645 10.4207 15.2652 10.2555V14.6148ZM16.784 21.8008V17.1004C16.893 17.132 16.9914 17.1566 17.0934 17.1777C18.7562 17.684 19.3152 18.3871 19.3152 19.4664C19.3152 20.841 18.2816 21.6672 16.784 21.8008Z" fill="white"/>
</svg>
