<svg width="14" height="14" viewBox="0 0 14 14" fill="none" xmlns="http://www.w3.org/2000/svg">
<path d="M13.45 8.77656L12.4265 7.90156C12.475 7.60468 12.5 7.30156 12.5 6.99843C12.5 6.69531 12.475 6.39218 12.4265 6.09531L13.45 5.22031C13.5271 5.15422 13.5824 5.06621 13.6084 4.96796C13.6343 4.86971 13.6297 4.76589 13.5953 4.67031L13.5812 4.62968C13.2995 3.84222 12.8776 3.11223 12.3359 2.47499L12.3078 2.44218C12.2421 2.36492 12.1545 2.30938 12.0566 2.28288C11.9587 2.25638 11.855 2.26017 11.7593 2.29374L10.489 2.74531C10.0203 2.36093 9.49683 2.05781 8.9312 1.84531L8.68589 0.517181C8.66738 0.417247 8.61891 0.32531 8.5469 0.253584C8.4749 0.181858 8.38277 0.133739 8.28277 0.115619L8.24058 0.107806C7.42652 -0.0390686 6.57027 -0.0390686 5.7562 0.107806L5.71402 0.115619C5.61401 0.133739 5.52189 0.181858 5.44988 0.253584C5.37788 0.32531 5.3294 0.417247 5.31089 0.517181L5.06402 1.85156C4.50291 2.06411 3.98038 2.36707 3.51714 2.74843L2.23745 2.29374C2.14178 2.2599 2.03806 2.25598 1.9401 2.28249C1.84214 2.30901 1.75457 2.3647 1.68902 2.44218L1.66089 2.47499C1.11986 3.11268 0.698036 3.84255 0.415579 4.62968L0.401517 4.67031C0.331204 4.86562 0.389017 5.08437 0.546829 5.22031L1.58277 6.10468C1.53433 6.39843 1.51089 6.69843 1.51089 6.99687C1.51089 7.29687 1.53433 7.59687 1.58277 7.88906L0.546829 8.77343C0.469635 8.83952 0.414386 8.92753 0.388429 9.02578C0.362472 9.12402 0.367037 9.22784 0.401517 9.32343L0.415579 9.36406C0.698392 10.1516 1.11714 10.8781 1.66089 11.5187L1.68902 11.5516C1.75473 11.6288 1.8423 11.6844 1.94021 11.7109C2.03811 11.7374 2.14175 11.7336 2.23745 11.7L3.51714 11.2453C3.98277 11.6281 4.50308 11.9312 5.06402 12.1422L5.31089 13.4766C5.3294 13.5765 5.37788 13.6684 5.44988 13.7402C5.52189 13.8119 5.61401 13.86 5.71402 13.8781L5.7562 13.8859C6.57775 14.0336 7.41904 14.0336 8.24058 13.8859L8.28277 13.8781C8.38277 13.86 8.4749 13.8119 8.5469 13.7402C8.61891 13.6684 8.66738 13.5765 8.68589 13.4766L8.9312 12.1484C9.4966 11.9365 10.023 11.6324 10.489 11.2484L11.7593 11.7C11.855 11.7338 11.9587 11.7378 12.0567 11.7112C12.1546 11.6847 12.2422 11.629 12.3078 11.5516L12.3359 11.5187C12.8796 10.8766 13.2984 10.1516 13.5812 9.36406L13.5953 9.32343C13.6656 9.13124 13.6078 8.91249 13.45 8.77656ZM11.3171 6.27968C11.3562 6.51562 11.3765 6.75781 11.3765 6.99999C11.3765 7.24218 11.3562 7.48437 11.3171 7.72031L11.214 8.34687L12.3812 9.34531C12.2043 9.75295 11.9809 10.1388 11.7156 10.4953L10.2656 9.98124L9.77495 10.3844C9.40152 10.6906 8.98589 10.9312 8.53589 11.1L7.94058 11.3234L7.66089 12.8391C7.21959 12.8891 6.77406 12.8891 6.33277 12.8391L6.05308 11.3203L5.46245 11.0937C5.01714 10.925 4.60308 10.6844 4.23277 10.3797L3.74214 9.97499L2.28277 10.4937C2.01714 10.1359 1.79527 9.74999 1.61714 9.34374L2.79683 8.33593L2.69527 7.71093C2.65777 7.47812 2.63745 7.23749 2.63745 6.99999C2.63745 6.76093 2.6562 6.52187 2.69527 6.28906L2.79683 5.66406L1.61714 4.65624C1.7937 4.24843 2.01714 3.86406 2.28277 3.50624L3.74214 4.02499L4.23277 3.62031C4.60308 3.31562 5.01714 3.07499 5.46245 2.90624L6.05464 2.68281L6.33433 1.16406C6.77339 1.11406 7.22183 1.11406 7.66245 1.16406L7.94214 2.67968L8.53745 2.90312C8.98589 3.07187 9.40308 3.31249 9.77652 3.61874L10.2671 4.02187L11.7171 3.50781C11.9828 3.86562 12.2046 4.25156 12.3828 4.65781L11.2156 5.65624L11.3171 6.27968ZM6.99995 4.09374C5.4812 4.09374 4.24995 5.32499 4.24995 6.84374C4.24995 8.36249 5.4812 9.59374 6.99995 9.59374C8.5187 9.59374 9.74995 8.36249 9.74995 6.84374C9.74995 5.32499 8.5187 4.09374 6.99995 4.09374ZM8.23745 8.08124C8.07514 8.24402 7.88225 8.3731 7.66988 8.46105C7.4575 8.54901 7.22982 8.5941 6.99995 8.59374C6.53277 8.59374 6.0937 8.41093 5.76245 8.08124C5.59968 7.91893 5.4706 7.72604 5.38265 7.51366C5.29469 7.30129 5.2496 7.07361 5.24995 6.84374C5.24995 6.37656 5.43277 5.93749 5.76245 5.60624C6.0937 5.27499 6.53277 5.09374 6.99995 5.09374C7.46714 5.09374 7.9062 5.27499 8.23745 5.60624C8.40023 5.76855 8.52931 5.96145 8.61726 6.17382C8.70522 6.3862 8.75031 6.61387 8.74995 6.84374C8.74995 7.31093 8.56714 7.74999 8.23745 8.08124Z" fill="white"/>
</svg>
