<svg width="32" height="32" viewBox="0 0 32 32" fill="none" xmlns="http://www.w3.org/2000/svg">
<path d="M29 5H3C2.44687 5 2 5.44687 2 6V26C2 26.5531 2.44687 27 3 27H29C29.5531 27 30 26.5531 30 26V6C30 5.44687 29.5531 5 29 5ZM27.75 24.75H4.25V7.25H27.75V24.75ZM19.0719 14.875H22.9281C22.9688 14.875 23 14.7625 23 14.625V13.125C23 12.9875 22.9688 12.875 22.9281 12.875H19.0719C19.0312 12.875 19 12.9875 19 13.125V14.625C19 14.7625 19.0312 14.875 19.0719 14.875ZM19.2219 19.375H25.025C25.1469 19.375 25.2469 19.2625 25.2469 19.125V17.625C25.2469 17.4875 25.1469 17.375 25.025 17.375H19.2219C19.1 17.375 19 17.4875 19 17.625V19.125C19 19.2625 19.1 19.375 19.2219 19.375ZM7 21.0312H8.37187C8.50312 21.0312 8.60937 20.9281 8.61875 20.7969C8.7375 19.2188 10.0562 17.9688 11.6562 17.9688C13.2563 17.9688 14.575 19.2188 14.6938 20.7969C14.7031 20.9281 14.8094 21.0312 14.9406 21.0312H16.3125C16.3464 21.0313 16.38 21.0244 16.4111 21.0111C16.4423 20.9978 16.4705 20.9782 16.4938 20.9537C16.5172 20.9291 16.5354 20.9001 16.5472 20.8683C16.559 20.8365 16.5642 20.8026 16.5625 20.7687C16.475 19.1031 15.5625 17.6531 14.2312 16.8281C14.8183 16.1828 15.1427 15.3412 15.1406 14.4688C15.1406 12.5344 13.5813 10.9688 11.6594 10.9688C9.7375 10.9688 8.17813 12.5344 8.17813 14.4688C8.17813 15.3781 8.52187 16.2031 9.0875 16.8281C8.40978 17.2481 7.84377 17.8259 7.43781 18.5121C7.03185 19.1983 6.79801 19.9725 6.75625 20.7687C6.74375 20.9125 6.85625 21.0312 7 21.0312ZM11.6562 12.8438C12.5469 12.8438 13.2719 13.5719 13.2719 14.4688C13.2719 15.3656 12.5469 16.0938 11.6562 16.0938C10.7656 16.0938 10.0406 15.3656 10.0406 14.4688C10.0406 13.5719 10.7656 12.8438 11.6562 12.8438Z" fill="white"/>
</svg>
