<svg width="32" height="32" viewBox="0 0 32 32" fill="none" xmlns="http://www.w3.org/2000/svg">
<path d="M9.25 7.8125C9.1125 7.8125 9 7.925 9 8.0625V9.5625C9 9.7 9.1125 9.8125 9.25 9.8125H21.25C21.3875 9.8125 21.5 9.7 21.5 9.5625V8.0625C21.5 7.925 21.3875 7.8125 21.25 7.8125H9.25ZM15 12.3125H9.25C9.1125 12.3125 9 12.425 9 12.5625V14.0625C9 14.2 9.1125 14.3125 9.25 14.3125H15C15.1375 14.3125 15.25 14.2 15.25 14.0625V12.5625C15.25 12.425 15.1375 12.3125 15 12.3125ZM13.5 26.625H6.5V4.625H24V14.625C24 14.7625 24.1125 14.875 24.25 14.875H26C26.1375 14.875 26.25 14.7625 26.25 14.625V3.375C26.25 2.82187 25.8031 2.375 25.25 2.375H5.25C4.69687 2.375 4.25 2.82187 4.25 3.375V27.875C4.25 28.4281 4.69687 28.875 5.25 28.875H13.5C13.6375 28.875 13.75 28.7625 13.75 28.625V26.875C13.75 26.7375 13.6375 26.625 13.5 26.625ZM27.25 23.875H22.75V22.7313C24.1969 22.3 25.25 20.9625 25.25 19.375C25.25 17.4406 23.6844 15.875 21.75 15.875C19.8156 15.875 18.25 17.4406 18.25 19.375C18.25 20.9594 19.3031 22.3 20.75 22.7313V23.875H16.25C15.975 23.875 15.75 24.1 15.75 24.375V29.125C15.75 29.4 15.975 29.625 16.25 29.625H27.25C27.525 29.625 27.75 29.4 27.75 29.125V24.375C27.75 24.1 27.525 23.875 27.25 23.875ZM20.1875 19.375C20.1875 18.5125 20.8875 17.8125 21.75 17.8125C22.6125 17.8125 23.3125 18.5125 23.3125 19.375C23.3125 20.2375 22.6125 20.9375 21.75 20.9375C20.8875 20.9375 20.1875 20.2375 20.1875 19.375ZM25.8125 27.6875H17.6875V25.8125H25.8125V27.6875Z" fill="white"/>
</svg>
