<svg width="12" height="10" viewBox="0 0 12 10" fill="none" xmlns="http://www.w3.org/2000/svg">
<path d="M7.63329 2.66634L8.33329 3.36634L4.36663 7.33301L3.66663 6.63301L7.63329 2.66634ZM1.33329 0.333008H10.6666C11.3141 0.333008 11.8333 0.852174 11.8333 1.49967V3.83301C11.5239 3.83301 11.2271 3.95592 11.0083 4.17472C10.7895 4.39351 10.6666 4.69026 10.6666 4.99967C10.6666 5.30909 10.7895 5.60584 11.0083 5.82463C11.2271 6.04342 11.5239 6.16634 11.8333 6.16634V8.49967C11.8333 9.14717 11.3141 9.66634 10.6666 9.66634H1.33329C1.02387 9.66634 0.727127 9.54342 0.508335 9.32463C0.289542 9.10584 0.166626 8.80909 0.166626 8.49967V6.16634C0.814126 6.16634 1.33329 5.64717 1.33329 4.99967C1.33329 4.69026 1.21038 4.39351 0.991584 4.17472C0.772792 3.95592 0.476045 3.83301 0.166626 3.83301V1.49967C0.166626 1.19026 0.289542 0.893509 0.508335 0.674717C0.727127 0.455924 1.02387 0.333008 1.33329 0.333008ZM1.33329 1.49967V2.98134C1.68777 3.18574 1.98217 3.47989 2.18686 3.8342C2.39155 4.18852 2.49932 4.59049 2.49932 4.99967C2.49932 5.40886 2.39155 5.81083 2.18686 6.16514C1.98217 6.51946 1.68777 6.81361 1.33329 7.01801V8.49967H10.6666V7.01801C10.3121 6.81361 10.0178 6.51946 9.81306 6.16514C9.60837 5.81083 9.5006 5.40886 9.5006 4.99967C9.5006 4.59049 9.60837 4.18852 9.81306 3.8342C10.0178 3.47989 10.3121 3.18574 10.6666 2.98134V1.49967H1.33329ZM4.54163 2.66634C5.02579 2.66634 5.41663 3.05717 5.41663 3.54134C5.41663 4.02551 5.02579 4.41634 4.54163 4.41634C4.05746 4.41634 3.66663 4.02551 3.66663 3.54134C3.66663 3.05717 4.05746 2.66634 4.54163 2.66634ZM7.45829 5.58301C7.94246 5.58301 8.33329 5.97384 8.33329 6.45801C8.33329 6.94217 7.94246 7.33301 7.45829 7.33301C6.97413 7.33301 6.58329 6.94217 6.58329 6.45801C6.58329 5.97384 6.97413 5.58301 7.45829 5.58301Z" fill="black"/>
</svg>
