<svg width="17" height="16" viewBox="0 0 17 16" fill="none" xmlns="http://www.w3.org/2000/svg">
<g clip-path="url(#clip0_80_28463)">
<path fill-rule="evenodd" clip-rule="evenodd" d="M9.53454 3.83325C9.53454 3.70064 9.48232 3.57347 9.38936 3.4797C9.29641 3.38593 9.17034 3.33325 9.03888 3.33325H2.46059C2.06622 3.33325 1.68801 3.49129 1.40915 3.77259C1.13029 4.0539 0.973633 4.43543 0.973633 4.83325L0.973633 14.8333C0.973633 15.2311 1.13029 15.6126 1.40915 15.8939C1.68801 16.1752 2.06622 16.3333 2.46059 16.3333H12.3736C12.768 16.3333 13.1462 16.1752 13.4251 15.8939C13.7039 15.6126 13.8606 15.2311 13.8606 14.8333V8.19725C13.8606 8.06464 13.8084 7.93747 13.7154 7.8437C13.6225 7.74993 13.4964 7.69725 13.3649 7.69725C13.2335 7.69725 13.1074 7.74993 13.0145 7.8437C12.9215 7.93747 12.8693 8.06464 12.8693 8.19725V14.8333C12.8693 14.9659 12.8171 15.093 12.7241 15.1868C12.6312 15.2806 12.5051 15.3333 12.3736 15.3333H2.46059C2.32913 15.3333 2.20306 15.2806 2.11011 15.1868C2.01716 15.093 1.96494 14.9659 1.96494 14.8333V4.83325C1.96494 4.70064 2.01716 4.57347 2.11011 4.4797C2.20306 4.38593 2.32913 4.33325 2.46059 4.33325H9.03888C9.17034 4.33325 9.29641 4.28057 9.38936 4.18681C9.48232 4.09304 9.53454 3.96586 9.53454 3.83325Z" fill="#8A7CFF"/>
<path fill-rule="evenodd" clip-rule="evenodd" d="M16.8346 0.5C16.8346 0.367392 16.7823 0.240215 16.6894 0.146447C16.5964 0.0526784 16.4704 0 16.3389 0L11.3824 0C11.2509 0 11.1249 0.0526784 11.0319 0.146447C10.939 0.240215 10.8867 0.367392 10.8867 0.5C10.8867 0.632608 10.939 0.759785 11.0319 0.853553C11.1249 0.947322 11.2509 1 11.3824 1H15.1424L7.06626 9.146C7.02017 9.19249 6.98362 9.24768 6.95868 9.30842C6.93374 9.36916 6.9209 9.43426 6.9209 9.5C6.9209 9.56574 6.93374 9.63084 6.95868 9.69158C6.98362 9.75232 7.02017 9.80751 7.06626 9.854C7.11234 9.90049 7.16705 9.93736 7.22726 9.96252C7.28747 9.98768 7.352 10.0006 7.41718 10.0006C7.48235 10.0006 7.54688 9.98768 7.60709 9.96252C7.66731 9.93736 7.72202 9.90049 7.7681 9.854L15.8433 1.707V5.5C15.8433 5.63261 15.8955 5.75979 15.9884 5.85355C16.0814 5.94732 16.2075 6 16.3389 6C16.4704 6 16.5964 5.94732 16.6894 5.85355C16.7823 5.75979 16.8346 5.63261 16.8346 5.5V0.5Z" fill="#8A7CFF"/>
</g>
<defs>
<clipPath id="clip0_80_28463">
<rect width="15.8609" height="16" fill="white" transform="translate(0.973633)"/>
</clipPath>
</defs>
</svg>
