<svg width="38" height="39" viewBox="0 0 38 39" fill="none" xmlns="http://www.w3.org/2000/svg">
<path d="M31.4225 0.5H6.57751C2.94485 0.5 0 3.44485 0 7.07751V31.9225C0 35.5551 2.94485 38.5 6.57751 38.5H31.4225C35.0551 38.5 38 35.5551 38 31.9225V7.07751C38 3.44485 35.0551 0.5 31.4225 0.5Z" fill="white"/>
<path d="M31.4225 0.5H6.57751C2.94485 0.5 0 3.44485 0 7.07751V31.9225C0 35.5551 2.94485 38.5 6.57751 38.5H31.4225C35.0551 38.5 38 35.5551 38 31.9225V7.07751C38 3.44485 35.0551 0.5 31.4225 0.5Z" fill="black"/>
<path d="M31.4225 0.5H6.57751C2.94485 0.5 0 3.44485 0 7.07751V31.9225C0 35.5551 2.94485 38.5 6.57751 38.5H31.4225C35.0551 38.5 38 35.5551 38 31.9225V7.07751C38 3.44485 35.0551 0.5 31.4225 0.5Z" fill="black"/>
<path d="M6.13428 26.95V24.3484L14.7442 14.5725H6.13428V11.7031H18.8555V14.5725L9.95878 24.4974L18.8555 24.3484V26.95H6.13428Z" fill="white"/>
<path d="M25.3556 27.3052C24.4388 27.3052 23.6824 27.1524 23.0864 26.8468C22.4905 26.5412 22.0168 26.1515 21.6653 25.6778C21.3138 25.2041 21.0541 24.6999 20.886 24.165C20.7179 23.6302 20.6071 23.1259 20.5536 22.6522C20.5078 22.1709 20.4849 21.7812 20.4849 21.4833V14.5725H24.0325V20.4608C24.0325 20.8428 23.9791 21.5684 24.0325 22.0498C24.1148 22.7898 24.0325 22.3454 24.2727 23.1107C24.4714 23.5462 24.7088 23.8823 25.0908 24.165C25.4805 24.4477 25.4419 24.4974 26.1693 24.7037C26.5208 24.7037 27.1601 24.7037 27.7278 24.3484C28.0716 24.2338 28.0145 24.2648 28.2895 23.9898C28.5722 23.7071 28.6486 23.2788 28.8167 22.7898C28.9848 22.3008 29.0688 21.6819 29.0688 20.9332L30.7077 21.6323C30.7077 22.6866 30.5014 23.6417 30.0888 24.4974C29.6839 25.3531 29.0841 26.0369 28.2895 26.5488C27.4949 27.0531 26.5169 27.3052 25.3556 27.3052ZM29.4012 26.95V23.1107H29.0688V14.5725H31.8423V26.95H29.4012Z" fill="white"/>
</svg>
