<svg width="100" height="101" viewBox="0 0 100 101" fill="none" xmlns="http://www.w3.org/2000/svg">
<path opacity="0.4" d="M91.6666 33.0416V58.4166L84.8749 52.5833C81.6249 49.7916 76.3749 49.7916 73.1249 52.5833L55.7916 67.4582C52.5416 70.2499 47.2916 70.2499 44.0416 67.4582L42.6249 66.2916C39.6666 63.7082 34.9583 63.4582 31.6249 65.7082L11.1249 79.4583L10.6666 79.7916C9.12492 76.4583 8.33325 72.4999 8.33325 67.9583V33.0416C8.33325 17.8749 17.3749 8.83325 32.5416 8.83325H67.4583C82.6249 8.83325 91.6666 17.8749 91.6666 33.0416Z" fill="#0A5896"/>
<path d="M37.5046 43.7545C42.9813 43.7545 47.4213 39.3146 47.4213 33.8378C47.4213 28.361 42.9813 23.9211 37.5046 23.9211C32.0278 23.9211 27.5879 28.361 27.5879 33.8378C27.5879 39.3146 32.0278 43.7545 37.5046 43.7545Z" fill="#0A5896"/>
<path d="M91.6609 58.4107V67.9524C91.6609 83.1191 82.6193 92.1607 67.4526 92.1607H32.5359C21.9109 92.1607 14.2442 87.7024 10.6609 79.7857L11.1192 79.4524L31.6192 65.7024C34.9526 63.4524 39.6609 63.7024 42.6193 66.2857L44.0359 67.4524C47.2859 70.2441 52.5359 70.2441 55.7859 67.4524L73.1193 52.5774C76.3693 49.7857 81.6193 49.7857 84.8693 52.5774L91.6609 58.4107Z" fill="#0A5896"/>
</svg>
